<svg width="80" height="90" viewBox="0 0 80 90" fill="none" xmlns="http://www.w3.org/2000/svg">
<g clip-path="url(#clip0_4_23)" filter="url(#filter0_d_4_23)">
<path d="M43.5837 4H36.4686C32.5252 4 28.7692 5.57063 25.8928 8.42249C22.9943 11.2962 21.398 15.0779 21.398 19.0667L21.3456 34.7486C21.3435 35.3961 21.8665 35.9225 22.5137 35.9246H22.5176C23.1632 35.9246 23.6875 35.4023 23.6896 34.7565L23.7198 25.7397H45.1428C46.6639 25.7621 46.6631 23.3733 45.1428 23.3958H41.1427V15.805C41.1427 15.1576 40.6181 14.633 39.9707 14.633C39.3233 14.633 38.7987 15.1576 38.7987 15.805V23.3958H23.7276L23.742 19.0706C23.742 12.1721 29.5701 6.34399 36.4685 6.34399H38.7985V10.2086C38.7985 10.856 39.3231 11.3806 39.9705 11.3806C40.618 11.3806 41.1425 10.856 41.1425 10.2086V6.34399H43.5836C50.601 6.34399 56.31 12.0532 56.31 19.0706V23.3958H50.739C49.2179 23.3734 49.2187 25.7623 50.739 25.7397H56.31V46.3572C56.31 53.0949 51.0293 58.6177 44.4008 58.9851V54.8646C44.4008 52.4952 42.473 50.5673 40.1035 50.5673C37.7341 50.5673 35.8062 52.4952 35.8062 54.8646V58.9857C29.0921 58.6227 23.7418 53.0979 23.7418 46.3572V40.5088C23.7418 39.8614 23.2172 39.3368 22.5698 39.3368C21.9224 39.3368 21.3978 39.8614 21.3978 40.5088V46.3572C21.3978 54.3902 27.7988 60.9673 35.8062 61.333V69.4143L31.8911 65.4992C30.2155 63.8235 27.4891 63.8237 25.8135 65.4993C24.1381 67.1748 24.1381 69.9012 25.8135 71.5768L36.9865 82.7499C38.5862 84.4168 41.4644 84.4168 43.0641 82.7497L47.4201 78.3936C47.8778 77.9359 47.8778 77.1938 47.4199 76.7363C46.9624 76.2787 46.2203 76.2786 45.7626 76.7364L41.4066 81.0924C40.6798 81.8501 39.3709 81.8501 38.6442 81.0924L27.4711 69.9195C26.7095 69.1578 26.7095 67.9183 27.4711 67.1568C28.1981 66.399 29.5066 66.399 30.2336 67.1568L36.1325 73.0559C36.8396 73.8007 38.17 73.2364 38.1502 72.2103V54.8648C38.1502 53.7877 39.0264 52.9115 40.1035 52.9115C41.1807 52.9115 42.0569 53.7877 42.0569 54.8648V72.0541C42.037 73.0803 43.3673 73.6444 44.0744 72.8996L49.8172 67.1568C50.5787 66.395 51.8182 66.3952 52.5797 67.1567C53.3413 67.9183 53.3413 69.1578 52.5797 69.9193L49.6301 72.8688C49.1724 73.3267 49.1724 74.0687 49.6301 74.5264C50.088 74.9839 50.8298 74.9839 51.2877 74.5264L54.2373 71.5765C55.9127 69.901 55.9127 67.1747 54.2373 65.499C52.5617 63.8234 49.8353 63.8234 48.1597 65.499L44.4008 69.2578V61.3331C48.1447 61.1619 51.6325 59.625 54.2867 56.9613C57.1029 54.1347 58.654 50.3687 58.654 46.3572V19.0706C58.6542 10.7607 51.8937 4 43.5837 4Z" fill="#FFAF00"/>
</g>
<defs>
<filter id="filter0_d_4_23" x="-4" y="0" width="90" height="90" filterUnits="userSpaceOnUse" color-interpolation-filters="sRGB">
<feFlood flood-opacity="0" result="BackgroundImageFix"/>
<feColorMatrix in="SourceAlpha" type="matrix" values="0 0 0 0 0 0 0 0 0 0 0 0 0 0 0 0 0 0 127 0" result="hardAlpha"/>
<feOffset dx="1" dy="1"/>
<feGaussianBlur stdDeviation="2.5"/>
<feColorMatrix type="matrix" values="0 0 0 0 1 0 0 0 0 0.828758 0 0 0 0 0.454167 0 0 0 1 0"/>
<feBlend mode="normal" in2="BackgroundImageFix" result="effect1_dropShadow_4_23"/>
<feBlend mode="normal" in="SourceGraphic" in2="effect1_dropShadow_4_23" result="shape"/>
</filter>
<clipPath id="clip0_4_23">
<rect width="80" height="80" fill="white" transform="translate(0 4)"/>
</clipPath>
</defs>
</svg>
